<svg width="505" height="505" viewBox="0 0 505 505" fill="none" xmlns="http://www.w3.org/2000/svg">
<path d="M77 140H426V174H370.5L363.291 165H313.444L310 174H196.199L193 165H140L134.5 174H77V140Z" fill="black"/>
<path d="M77 414H228L229.5 418H272.5L274.5 414H426V431.5H445.5V466H426H77H58V431.5H77V414Z" fill="black"/>
<path d="M231 231H274V266.5L252 324.5L231 268.5V231Z" fill="black"/>
<path d="M349.348 231H382V357H339V341H370V298.078H339V284.678H370V241H345.5L349.348 231Z" fill="black"/>
<path d="M153.652 231H121V357H164V341H133V298.078H164V284.678H133V241H157.5L153.652 231Z" fill="black"/>
<path d="M216.159 192.148C216.073 190.988 216.991 190 218.154 190H285.886C287.034 190 287.946 190.965 287.883 192.111L286.815 211.333C286.638 214.512 284.008 217 280.824 217H223.572C220.43 217 217.82 214.576 217.588 211.443L216.159 192.148Z" fill="black"/>
<path d="M364.608 190H393.886C395.034 190 395.946 190.965 395.883 192.111L394.815 211.333C394.638 214.512 392.008 217 388.824 217H354.5L364.608 190Z" fill="black"/>
<path d="M106.159 192.148C106.073 190.988 106.991 190 108.154 190H140.728L151.5 217H113.572C110.43 217 107.82 214.576 107.588 211.443L106.159 192.148Z" fill="black"/>
<path d="M177.841 395.852C177.927 397.012 177.009 398 175.846 398L108.114 398C106.966 398 106.054 397.035 106.117 395.889L107.185 376.667C107.362 373.488 109.992 371 113.176 371L170.428 371C173.57 371 176.18 373.424 176.412 376.557L177.841 395.852Z" fill="black"/>
<path d="M216.142 394.867C216.065 396.021 216.981 397 218.138 397L219.733 397L224 397L217.067 381L216.142 394.867Z" fill="black"/>
<path d="M287.858 394.867C287.935 396.021 287.019 397 285.862 397L284.267 397L280 397L286.933 381L287.858 394.867Z" fill="black"/>
<path d="M395.841 394.852C395.927 396.012 395.009 397 393.846 397L326.114 397C324.966 397 324.054 396.035 324.117 394.889L325.185 375.667C325.362 372.488 327.992 370 331.176 370L388.428 370C391.57 370 394.18 372.424 394.412 375.557L395.841 394.852Z" fill="black"/>
<path d="M61 125H442L251.5 41L61 125Z" fill="black"/>
<path d="M142.641 168H189.054L252.133 335.918L315.212 168H360.359L365 173.877L338.84 243.983H365V279.666H322.807L315.212 301.075H365V335.918H300.866L269.643 414H232.091L201.712 335.918H138V301.075H187.366L179.349 279.666H138V243.983H165.848L138 173.877L142.641 168Z" fill="black"/>
</svg>
